<svg width="20" height="21" viewBox="0 0 20 21" fill="none" xmlns="http://www.w3.org/2000/svg">
<path fill-rule="evenodd" clip-rule="evenodd" d="M3.33398 7.16669C2.87375 7.16669 2.50065 7.53978 2.50065 8.00002V16.3334C2.50065 16.7936 2.87375 17.1667 3.33398 17.1667H16.6673C17.1276 17.1667 17.5006 16.7936 17.5006 16.3334V8.00002C17.5006 7.53978 17.1276 7.16669 16.6673 7.16669H3.33398ZM0.833984 8.00002C0.833984 6.61931 1.95327 5.50002 3.33398 5.50002H16.6673C18.048 5.50002 19.1673 6.61931 19.1673 8.00002V16.3334C19.1673 17.7141 18.048 18.8334 16.6673 18.8334H3.33398C1.95327 18.8334 0.833984 17.7141 0.833984 16.3334V8.00002Z" fill="#1565D8"/>
<path fill-rule="evenodd" clip-rule="evenodd" d="M6.56622 2.89892C7.03506 2.43008 7.67094 2.16669 8.33398 2.16669H11.6673C12.3304 2.16669 12.9662 2.43008 13.4351 2.89892C13.9039 3.36776 14.1673 4.00365 14.1673 4.66669V18C14.1673 18.4603 13.7942 18.8334 13.334 18.8334C12.8737 18.8334 12.5007 18.4603 12.5007 18V4.66669C12.5007 4.44567 12.4129 4.23371 12.2566 4.07743C12.1003 3.92115 11.8883 3.83335 11.6673 3.83335H8.33398C8.11297 3.83335 7.90101 3.92115 7.74473 4.07743C7.58845 4.23371 7.50065 4.44567 7.50065 4.66669V18C7.50065 18.4603 7.12755 18.8334 6.66732 18.8334C6.20708 18.8334 5.83398 18.4603 5.83398 18V4.66669C5.83398 4.00365 6.09738 3.36776 6.56622 2.89892Z" fill="#1565D8"/>
</svg>
