<svg width="128" height="74" viewBox="0 0 128 74" fill="none" xmlns="http://www.w3.org/2000/svg">
<path fill-rule="evenodd" clip-rule="evenodd" d="M103.363 29.8603V34.5598H92.9876V38.7533L101.885 38.7894L102.168 38.9557C102.319 39.0425 102.562 39.2377 102.713 39.3895C102.857 39.5341 103.061 39.8378 103.33 40.4524V49.6346L103.153 50.0322C103.061 50.2491 102.857 50.5528 102.713 50.7046C102.562 50.8492 102.319 51.0445 101.885 51.2975H89.0412L88.0891 49.02C87.5703 47.7692 87.1435 46.7209 87.1435 46.6847C87.1435 46.6558 89.4614 46.6341 97.4528 46.6341V42.3683H88.5881L88.2729 42.1948C88.1022 42.1008 87.8395 41.8767 87.6819 41.7032C87.5243 41.5369 87.3339 41.2477 87.2551 41.0669C87.1107 40.7416 87.1106 40.7416 87.1106 31.5594L87.2879 31.1617C87.393 30.9231 87.5966 30.6267 87.8133 30.417C88.0037 30.229 88.2795 30.0266 88.4239 29.9687C88.6406 29.8892 89.9868 29.8675 103.363 29.8603ZM127.921 29.8603V51.3337L122.044 51.2975L122.025 40.6693C122.018 34.8201 122.025 29.9977 122.044 29.947C122.064 29.882 122.721 29.8603 127.921 29.8603ZM112.7 35.2105C118.144 35.2105 118.551 35.2178 118.846 35.3407C119.017 35.413 119.273 35.5648 119.411 35.6805C119.549 35.8034 119.753 36.0348 119.851 36.2083C119.956 36.3746 120.087 36.6999 120.14 36.9313C120.225 37.2856 120.238 38.1894 120.206 49.5623L120.035 49.9599C119.943 50.1768 119.72 50.5167 119.542 50.7046C119.345 50.9143 119.083 51.1095 118.879 51.1891C118.544 51.3264 118.347 51.3337 112.641 51.3192C106.823 51.2975 106.738 51.2975 106.449 51.1457C106.285 51.0661 106.022 50.8492 105.858 50.6757C105.694 50.495 105.503 50.2202 105.431 50.0684C105.306 49.7864 105.3 49.6129 105.28 43.4167C105.267 38.9557 105.287 36.9675 105.333 36.765C105.372 36.606 105.51 36.324 105.635 36.136C105.759 35.9408 105.97 35.7094 106.107 35.6082C106.239 35.507 106.469 35.3768 106.613 35.319C106.836 35.2322 107.775 35.2178 112.707 35.2105H112.7ZM111.104 46.6341H114.289V39.9101H111.104V46.6341ZM0 49.743H6.23814V56.6839H0V49.743ZM21.2622 57.9926C22.28 57.9853 23.1599 57.9998 23.2124 58.0215C23.2978 58.0504 23.3109 58.3685 23.3109 62.5403H19.2397L19.2266 60.3062C19.2135 58.4047 19.2266 58.0649 19.312 58.036C19.3579 58.0143 20.2378 57.9926 21.2556 57.9926H21.2622ZM10.0533 58.2022L15.1423 58.2384L15.1554 60.9497C15.1685 63.0103 15.1554 63.6827 15.0897 63.755C15.0306 63.8273 14.4987 63.8489 12.6273 63.8417C11.3206 63.8417 10.2043 63.8273 10.1517 63.8056C10.0664 63.7766 10.0533 63.3935 10.0533 60.9858V58.2022ZM1.9765 60.4436H7.361V66.3723H1.9765V60.4436ZM100.112 69.2281C100.408 69.2498 100.677 69.3221 100.861 69.4306C101.025 69.5173 101.235 69.7053 101.34 69.8427C101.445 69.9801 101.57 70.262 101.623 70.4573C101.675 70.6597 101.721 70.8404 101.721 70.8766C101.721 70.9055 101.471 70.9272 101.163 70.9272C100.611 70.9272 100.605 70.9272 100.605 70.7465C100.605 70.6452 100.585 70.5151 100.552 70.45C100.526 70.385 100.427 70.2837 100.322 70.2331C100.224 70.1753 100.053 70.1319 99.9481 70.1319C99.8364 70.1319 99.692 70.1681 99.6198 70.2042C99.5475 70.2476 99.4425 70.3777 99.3899 70.4934C99.3374 70.6163 99.2717 70.9778 99.252 71.3104C99.2258 71.6719 99.2389 72.0551 99.2849 72.3009C99.3308 72.5178 99.4293 72.7709 99.5081 72.8649C99.6198 72.9878 99.7248 73.0312 99.9678 73.0239C100.217 73.0239 100.316 72.9878 100.441 72.8432C100.532 72.742 100.605 72.5829 100.605 72.4817C100.605 72.3009 100.611 72.3009 101.163 72.3009C101.471 72.3009 101.721 72.3226 101.721 72.3588C101.721 72.3877 101.682 72.5757 101.629 72.7709C101.563 73.0167 101.445 73.2336 101.248 73.4433C101.064 73.6457 100.848 73.7976 100.638 73.8699C100.414 73.9494 100.152 73.9783 99.8167 73.9566C99.4359 73.9277 99.252 73.8771 99.0091 73.7253C98.8186 73.6023 98.6282 73.3999 98.5035 73.1902C98.3918 72.995 98.2671 72.713 98.2342 72.554C98.1948 72.3949 98.1751 71.896 98.1883 71.4333C98.208 70.7175 98.2342 70.5512 98.3787 70.2403C98.4706 70.0451 98.6676 69.7704 98.8055 69.6403C98.9434 69.5101 99.1929 69.3583 99.3571 69.3004C99.5541 69.2281 99.8036 69.2065 100.112 69.2281ZM122.537 69.1992C122.701 69.192 122.996 69.2426 123.193 69.3077C123.463 69.3944 123.633 69.5101 123.85 69.7632C124.014 69.9511 124.185 70.2259 124.224 70.385C124.27 70.544 124.31 70.732 124.31 70.8043C124.31 70.9128 124.237 70.9272 123.259 70.9272L123.226 70.6814C123.213 70.544 123.147 70.3777 123.082 70.3199C123.016 70.2548 122.858 70.1825 122.734 70.1608C122.589 70.1319 122.425 70.1464 122.287 70.2114C122.136 70.2837 122.044 70.3994 121.979 70.5874C121.913 70.7609 121.88 71.1224 121.88 71.6141C121.88 72.1274 121.913 72.4528 121.979 72.6263C122.031 72.7637 122.136 72.9155 122.208 72.9516C122.281 72.995 122.451 73.0239 122.583 73.0239C122.734 73.0312 122.904 72.9733 123.009 72.8793C123.115 72.7998 123.206 72.6407 123.259 72.3009H124.342L124.29 72.5684C124.264 72.7203 124.191 72.9589 124.119 73.0962C124.054 73.2336 123.876 73.4577 123.732 73.5879C123.581 73.7108 123.344 73.8554 123.206 73.8915C123.075 73.9349 122.786 73.9638 122.57 73.9638C122.353 73.9638 122.057 73.9205 121.913 73.8771C121.755 73.8265 121.519 73.6457 121.315 73.4216C121.046 73.1252 120.961 72.9733 120.869 72.5901C120.777 72.2286 120.757 71.9539 120.777 71.3972C120.797 70.8983 120.849 70.5729 120.934 70.3488C121.007 70.168 121.197 69.8861 121.355 69.7126C121.532 69.5246 121.768 69.3583 121.946 69.3004C122.11 69.2498 122.373 69.1992 122.537 69.1992ZM90.755 69.2643H93.6443V70.2042H91.8057V71.0718H93.3816V72.0117H91.8057V73.0239H93.6443V73.9638H90.755V69.2643ZM95.2202 69.2643L95.8966 70.7465L96.5335 69.2643H97.1245C97.4725 69.2643 97.7155 69.2932 97.7155 69.3366C97.7155 69.38 97.466 69.9005 96.5992 71.5779L97.1836 72.7203C97.5054 73.3421 97.7483 73.8843 97.7286 73.9132C97.7024 73.9422 97.4331 73.9566 96.5663 73.9277L96.238 73.2264C96.0542 72.836 95.8966 72.5178 95.8769 72.5178C95.8572 72.5178 95.693 72.8432 95.1874 73.9638H94.6096C94.1959 73.9638 94.0383 73.9422 94.0383 73.8771C94.0383 73.8265 94.2878 73.2987 94.5964 72.6986C94.905 72.1057 95.1611 71.5996 95.1611 71.5779C95.1546 71.5562 94.905 71.0574 94.603 70.4573C94.3009 69.8644 94.0645 69.351 94.0777 69.3221C94.0974 69.286 94.36 69.2643 95.2202 69.2643ZM102.378 69.2643H105.333V70.2042H103.494V71.0718H105.07L105.037 71.9756L103.494 72.0117V73.0239H105.333V73.9638L102.41 73.9277L102.378 69.2643ZM105.989 69.2643H107.04V73.0239H108.813L108.78 73.9277L105.989 73.9638V69.2643ZM109.404 69.2643H110.52V73.0239H112.227V73.9638L109.437 73.9277L109.404 69.2643ZM112.884 69.2643H115.839V70.2042H114V71.0718H115.576L115.543 71.9756L114 72.0117V73.0239H115.839V73.9638L112.917 73.9277L112.884 69.2643ZM116.502 69.2643H117.553L118.899 71.9033L118.925 69.2643H120.041L120.015 73.9277H118.965L117.586 71.2598L117.553 73.9638H116.502V69.2643ZM125.039 69.2643H127.928V70.2042H126.089V71.0718H127.665V72.0117H126.089V73.0239H127.928V73.9638H125.039V69.2643Z" fill="#D76112"/>
<path fill-rule="evenodd" clip-rule="evenodd" d="M10.9726 6.86859H17.2107V0H10.9726V6.86859ZM3.81511 14.8217H10.0533V7.8808H3.81511V14.8217ZM10.9726 14.8217H17.2107V7.8808H10.9726V14.8217ZM3.81511 22.7025H10.0533V15.8339H3.81511V22.7025ZM10.9726 22.7025H17.2107V15.8339H10.9726V22.7025ZM3.81511 30.6556H10.0533V23.787H3.81511V30.6556ZM10.9726 30.6556H17.2107V23.787H10.9726V30.6556ZM18.0643 30.6556L24.3353 30.6194V23.8232L18.0643 23.787V30.6556ZM25.1889 23.8376C25.1627 23.8593 25.143 25.3559 25.143 27.1635C25.1495 28.9638 25.1692 30.4893 25.1889 30.5471C25.2152 30.6411 25.6289 30.6556 28.3408 30.6556H31.4599V23.787C26.6401 23.787 25.2218 23.8087 25.1889 23.8376ZM32.3135 30.6556C38.1446 30.6556 38.5583 30.6411 38.5845 30.5471C38.6042 30.4893 38.6174 28.9927 38.6174 27.2213C38.6174 25.4499 38.6042 23.9533 38.5845 23.8955C38.5583 23.8015 38.1446 23.787 35.4326 23.787H32.3135V30.6556ZM49.9117 51.3337L63.4057 51.2975C63.8391 51.0445 64.0887 50.8492 64.2331 50.6974C64.3841 50.5528 64.5811 50.2636 64.6796 50.0684L64.8504 49.7069V36.8373C64.5943 36.2878 64.3776 35.9769 64.1937 35.7962C64.0033 35.601 63.7275 35.4058 63.5371 35.3335C63.2416 35.2178 62.8542 35.2106 59.5184 35.2106H55.8215V29.8603H49.9117V51.3337ZM55.8215 39.9101H58.9734V46.6341H55.8215V39.9101ZM66.7218 33.4753H72.6316V29.8603H66.7218V33.4753ZM75.1269 35.2106H73.5509V38.8256H75.1269L75.1597 49.6346C75.4355 50.2636 75.6456 50.56 75.8295 50.7408C76.0002 50.9143 76.3023 51.1168 76.4927 51.1891C76.821 51.3264 77.0377 51.3337 81.4963 51.3337C84.0638 51.3337 86.1717 51.312 86.1848 51.2758C86.1979 51.2469 85.7777 50.1913 85.2523 48.926L84.2871 46.6341H81.0367V38.8256L84.2871 38.7894V35.2467L81.0367 35.2106V29.8603H75.1269V35.2106ZM3.81511 38.6087H10.0533V31.6678H3.81511V38.6087ZM10.9594 31.7401C10.9529 31.7763 10.9463 33.338 10.9594 35.2106L10.9726 38.6087H17.2107V31.6678C12.0823 31.6678 10.9726 31.6895 10.9594 31.7401ZM18.0643 38.6087L24.3353 38.5725V31.704L18.0643 31.6678V38.6087ZM25.1955 31.7763C25.1758 31.8341 25.1561 33.3452 25.1561 35.1383C25.1561 36.9241 25.1692 38.4424 25.1889 38.5002C25.2218 38.5942 25.6289 38.6087 28.3408 38.6087H31.4599V31.6678C25.642 31.6678 25.2283 31.6823 25.1955 31.7763ZM32.3135 38.6087C38.1511 38.6087 38.5583 38.5942 38.5845 38.5002C38.6042 38.4424 38.6174 36.9241 38.6174 35.1383C38.6174 33.3452 38.6042 31.8341 38.5845 31.7763C38.5583 31.6823 38.1511 31.6678 35.4326 31.6678H32.3135V38.6087ZM39.4447 31.7763C39.425 31.8341 39.4053 33.3452 39.4053 35.1383C39.4053 36.9241 39.4185 38.4424 39.4382 38.5002C39.471 38.5942 39.8781 38.6087 42.5901 38.6087H45.7091V31.6678C39.8912 31.6678 39.4776 31.6823 39.4447 31.7763ZM66.7218 51.3337H72.6316V35.2106H66.7218V51.3337ZM3.81511 46.4895H10.0533V39.6209H3.81511V46.4895ZM10.9726 46.4895H17.2107V39.6209H10.9726V46.4895ZM32.3135 46.4895H38.5517C38.6042 46.2364 38.6108 44.6964 38.6042 42.9106L38.5845 39.6571L32.3135 39.6209V46.4895ZM39.4447 39.7294C39.425 39.7872 39.4053 41.2838 39.4053 43.0552C39.4053 44.8193 39.425 46.316 39.4382 46.381C39.471 46.475 39.8781 46.4895 42.5901 46.4895H45.7091V39.6209C39.8912 39.6209 39.4776 39.6354 39.4447 39.7294ZM11.0448 47.5451C10.9594 47.5812 10.9529 48.0729 10.9594 51.0155L10.9726 54.4426H17.2107C17.2107 48.015 17.1976 47.5668 17.1122 47.5379C17.0597 47.5162 15.6938 47.5017 14.0785 47.5017C12.4631 47.5089 11.0973 47.5306 11.0448 47.5451ZM18.1366 47.5451C18.0512 47.5812 18.0446 48.0729 18.0512 51.0155L18.0643 54.4426L24.3353 54.4064C24.3616 48.4705 24.3484 47.6608 24.2893 47.5885C24.2237 47.5162 23.5867 47.4945 21.2162 47.5017C19.5746 47.5089 18.1891 47.5306 18.1366 47.5451ZM25.2218 47.5885C25.1495 47.6608 25.1364 48.2175 25.143 50.9505C25.1495 52.7508 25.1758 54.2691 25.1889 54.3341C25.2218 54.4281 25.6289 54.4426 28.3408 54.4426H31.4599C31.4599 48.015 31.4468 47.5668 31.3614 47.5379C31.3089 47.5162 29.9234 47.5017 28.2883 47.5017C26.0688 47.5017 25.294 47.5234 25.2218 47.5885ZM32.3858 47.5451C32.3004 47.5812 32.2938 48.0729 32.3004 51.0155L32.3135 54.4426C38.1511 54.4426 38.5583 54.4281 38.5845 54.3341C38.6042 54.2691 38.6174 52.758 38.6174 50.9722C38.6174 48.1741 38.6042 47.7042 38.5189 47.6102C38.4335 47.5162 38.0067 47.5017 35.4523 47.5017C33.8173 47.5089 32.4383 47.5306 32.3858 47.5451ZM39.5038 47.6102C39.4119 47.7186 39.3988 48.0512 39.4053 50.9722C39.4053 52.7652 39.425 54.2691 39.4382 54.3341C39.471 54.4281 39.8781 54.4426 42.5901 54.4426H45.7091C45.7091 48.015 45.696 47.5668 45.6106 47.5379C45.5581 47.5162 44.1857 47.5017 42.5638 47.5017C39.97 47.5017 39.6023 47.5162 39.5038 47.6102ZM49.649 54.9487C49.649 55.7802 49.6687 55.9681 49.7475 55.9971C49.8066 56.0115 50.3056 56.0332 50.8638 56.0332H51.8816V63.191H54.5082V56.0332C56.0907 56.0332 56.5897 56.0115 56.6423 55.9971C56.7276 55.9681 56.7408 55.7802 56.7408 54.9487V53.9365H49.649V54.9487ZM71.3905 58.5565L71.384 63.191L73.9777 63.1549V57.8407H75.291C75.2648 61.7305 75.2713 62.938 75.291 63.0247C75.3239 63.191 75.3304 63.191 76.6043 63.191H77.8848V56.9008L77.3726 56.2863L73.9777 56.214V53.9726L71.3905 53.9293V58.5565ZM93.1255 63.1838H95.6865V53.9293H93.1255V63.1838ZM110.953 53.9799C110.921 54.0088 110.901 54.3631 110.908 54.7752L110.921 55.5199H113.547V53.9293C111.577 53.9293 110.98 53.951 110.953 53.9799ZM25.1955 55.556C25.1758 55.6211 25.1627 57.1322 25.1627 58.918C25.1627 60.7111 25.1758 62.2222 25.1955 62.28C25.2218 62.3812 25.6289 62.3885 28.3474 62.3885H31.4665V55.4476C25.642 55.4476 25.2283 55.462 25.1955 55.556ZM32.3201 62.3885C38.1511 62.3885 38.5583 62.3812 38.5911 62.28C38.6042 62.2222 38.6239 60.7111 38.6239 58.918C38.6239 57.1322 38.6042 55.6211 38.5911 55.556C38.5583 55.462 38.1511 55.4476 35.4392 55.4476H32.3201V62.3885ZM57.9227 56.3875C57.8308 56.4598 57.6864 56.6189 57.6076 56.7273C57.4697 56.9298 57.4697 56.9587 57.4828 59.8146L57.5025 62.6921L57.995 63.1838H63.1168C63.7603 61.7016 63.9376 61.2461 63.9245 61.2172C63.9114 61.1883 63.0314 61.1594 61.9677 61.1594H60.0306V60.581C63.3335 60.581 63.3795 60.581 63.583 60.4219C63.7012 60.3351 63.8326 60.1544 63.8785 60.0242C63.9442 59.8579 63.9639 59.3808 63.9639 58.3975C63.9639 57.1322 63.9573 56.9876 63.8326 56.7707C63.7603 56.6406 63.6093 56.4743 63.4911 56.3947C63.2875 56.2501 63.1628 56.2501 60.6872 56.2501C58.2379 56.2501 58.0803 56.2574 57.9227 56.3875ZM60.0306 58.2673H61.3439V58.9903H60.0306V58.2673ZM64.8372 56.3947C64.719 56.4743 64.568 56.6695 64.4958 56.843C64.371 57.1322 64.3644 57.313 64.3644 59.6772C64.3644 61.0726 64.3907 62.3234 64.4235 62.4608C64.4564 62.6054 64.5877 62.8223 64.719 62.9524L64.9554 63.1838L70.0838 63.1476C70.6879 61.7233 70.8652 61.275 70.8652 61.2317C70.8652 61.1883 70.1758 61.1594 68.9281 61.1594H66.991V58.2673L70.0838 58.2312C70.6879 56.8068 70.8652 56.3586 70.8652 56.3152C70.8652 56.2718 69.8474 56.2501 67.9563 56.2501C65.1656 56.2501 65.0408 56.2501 64.8372 56.3947ZM78.6137 63.1838L81.2074 63.1476L81.2402 58.2673L82.4944 58.3035C82.4813 61.8896 82.4944 62.9886 82.5141 63.0609C82.547 63.1766 82.6717 63.1838 83.834 63.1838H85.1145C85.1145 57.3708 85.0948 56.9442 85.0094 56.7707C84.9503 56.6622 84.8255 56.5032 84.727 56.4236C84.5629 56.2863 84.4381 56.279 81.5817 56.2646L78.6137 56.2429V63.1838ZM86.3883 56.308C86.3095 56.3369 86.1585 56.4743 86.06 56.5972L85.8696 56.8285C85.8368 61.7739 85.8499 62.4752 85.9156 62.6343C85.9615 62.75 86.0797 62.9235 86.1782 63.0175L86.3621 63.1838H91.8122L92.3047 62.6921C92.3441 57.3419 92.331 56.9804 92.2391 56.7852C92.18 56.6695 92.0552 56.5032 91.9567 56.4236C91.786 56.2863 91.6612 56.279 89.1528 56.2646C87.7082 56.2574 86.4606 56.279 86.3883 56.308ZM88.4699 58.2601L89.7175 58.3035L89.7438 61.1594H88.4305L88.4699 58.2601ZM96.8816 56.3875C96.7634 56.467 96.6255 56.6261 96.5729 56.749C96.4876 56.9298 96.4744 57.4214 96.4744 59.8001V62.6415L96.9669 63.1766C102.069 63.1838 102.332 63.1693 102.516 63.0536C102.627 62.9813 102.772 62.8006 102.844 62.6415C102.969 62.3668 102.975 62.215 102.956 59.6338C102.942 57.19 102.929 56.9008 102.824 56.7273C102.759 56.6189 102.614 56.467 102.496 56.3875C102.292 56.2501 102.168 56.2429 99.692 56.2429C97.2099 56.2429 97.0851 56.2501 96.8816 56.3875ZM99.0353 58.2673H100.349V61.1594H99.0353V58.2673ZM104.105 56.3875C103.986 56.467 103.849 56.6261 103.796 56.749C103.711 56.9298 103.698 57.4214 103.698 59.8001V62.6415L104.19 63.1766L107.572 63.1838V64.196C104.387 64.196 103.698 64.2177 103.698 64.2683C103.698 64.3045 103.881 64.7599 104.105 65.2805C104.394 65.9529 104.551 66.2349 104.65 66.2638C104.722 66.2783 105.858 66.2855 107.178 66.2783C109.535 66.2566 109.575 66.2493 109.785 66.0903C109.916 65.9891 110.034 65.8083 110.1 65.6203C110.185 65.3528 110.198 64.6949 110.179 60.7979L110.165 56.279C104.42 56.2429 104.308 56.2429 104.105 56.3875ZM106.258 58.2673H107.572V61.1594H106.258V58.2673ZM110.953 56.2863C110.921 56.3152 110.901 57.8769 110.908 59.7567L110.921 63.1838H113.547V56.2429C111.577 56.2429 110.98 56.2646 110.953 56.2863ZM114.861 56.2935C114.801 56.3152 114.69 56.402 114.604 56.4815C114.519 56.5682 114.407 56.7273 114.361 56.8358C114.283 56.9948 114.27 57.5588 114.27 59.7495C114.27 62.0125 114.283 62.4969 114.368 62.6777C114.421 62.7934 114.545 62.9597 114.644 63.0392C114.821 63.1838 114.913 63.1838 117.389 63.1838L119.95 63.1766C120.567 61.6944 120.737 61.2389 120.724 61.21C120.711 61.181 119.838 61.1594 118.781 61.1594H116.863L116.896 60.581H120.245L120.738 60.0821C120.777 57.1611 120.764 56.9731 120.659 56.7562C120.593 56.6261 120.449 56.4526 120.344 56.3803C120.153 56.2501 119.976 56.2429 117.553 56.2501C116.121 56.2501 114.913 56.2718 114.861 56.2935ZM116.896 58.2601L118.157 58.3035L118.177 58.9903H116.896V58.2601ZM122.077 56.2935C122.025 56.3152 121.913 56.402 121.828 56.4887C121.742 56.5682 121.631 56.7273 121.578 56.8358C121.512 56.9876 121.486 57.378 121.486 58.4481C121.486 59.5109 121.512 59.9086 121.578 60.0532C121.631 60.1688 121.736 60.3207 121.814 60.4002C121.952 60.5376 122.077 60.5448 123.673 60.581L125.38 60.6171L125.393 61.1594C122.419 61.1594 121.545 61.181 121.532 61.21C121.519 61.2461 121.696 61.7016 121.926 62.2222L122.34 63.1838H127.462L127.954 62.6921L128 59.6772C127.711 59.294 127.547 59.1422 127.448 59.0915C127.311 59.012 126.89 58.9903 125.689 58.9903H124.113V58.2673H127.987V56.2429C123.482 56.2501 122.13 56.2718 122.077 56.2935ZM9.28498 69.2571C9.16678 69.3004 8.95665 69.4089 8.82532 69.5029C8.68743 69.6041 8.497 69.8065 8.3985 69.9584C8.30657 70.1102 8.17524 70.4283 8.11615 70.6669C8.03078 70.9923 8.01108 71.2743 8.03078 71.7876C8.05705 72.2792 8.10301 72.5757 8.20808 72.836C8.28687 73.0312 8.43133 73.2915 8.52983 73.3999C8.62833 73.5156 8.82532 73.6746 8.96978 73.7614C9.19304 73.8988 9.33751 73.9205 9.95475 73.9205C10.572 73.9205 10.7296 73.8988 11.0054 73.7542C11.1892 73.6602 11.3862 73.53 11.4519 73.465C11.5504 73.3565 11.5701 73.2119 11.5635 72.3443V71.3538H9.79059V72.2214H10.5129C10.5129 72.7998 10.4866 72.8866 10.3816 72.9444C10.3093 72.9806 10.132 73.0167 9.98759 73.0167C9.84312 73.0167 9.6527 72.9733 9.56077 72.9227C9.46227 72.8793 9.33094 72.7058 9.26528 72.5468C9.16678 72.3298 9.13395 72.0985 9.13395 71.643C9.13395 71.3032 9.16678 70.9055 9.19961 70.7537C9.23901 70.6091 9.35721 70.4066 9.46227 70.3054C9.5936 70.1897 9.73806 70.1247 9.88909 70.1247C10.0598 70.1247 10.1714 70.1825 10.3159 70.3416C10.4275 70.4573 10.5129 70.6236 10.5129 70.7031C10.5129 70.8332 10.5589 70.8477 11.0579 70.8477H11.5964C11.5176 70.3705 11.4256 70.103 11.3403 69.9439C11.2352 69.7487 11.0711 69.5824 10.8347 69.445C10.5523 69.2788 10.3816 69.2281 9.98759 69.2137C9.71836 69.1992 9.40317 69.2209 9.28498 69.2571ZM44.0675 69.3221C43.8574 69.4089 43.6013 69.5824 43.4634 69.7415C43.3255 69.8933 43.1482 70.1753 43.076 70.3777C42.9775 70.6236 42.9249 70.9489 42.8987 71.3899C42.879 71.8599 42.8987 72.1563 42.9775 72.4528C43.0366 72.6841 43.1548 72.995 43.2467 73.1396C43.3321 73.2915 43.4962 73.4867 43.6079 73.5734C43.7129 73.6674 43.9296 73.7903 44.0872 73.8482C44.2382 73.9132 44.5534 73.9566 44.7898 73.9566C45.0744 73.9518 45.3151 73.9012 45.5121 73.8048C45.6763 73.7253 45.893 73.5734 45.9981 73.465C46.0965 73.3565 46.2607 73.1035 46.3526 72.9083C46.4971 72.5974 46.5299 72.4311 46.5496 71.7514C46.5759 71.1513 46.5562 70.8694 46.4774 70.5946C46.4183 70.3922 46.2804 70.103 46.1753 69.9439C46.0703 69.7849 45.8339 69.5607 45.6369 69.445C45.3742 69.286 45.1707 69.2281 44.8555 69.2065C44.5469 69.1848 44.3302 69.2209 44.0675 69.3221ZM44.363 70.2837C44.4615 70.197 44.6191 70.1247 44.7045 70.1247C44.7898 70.1247 44.9408 70.1681 45.0393 70.2259C45.1378 70.2765 45.2757 70.45 45.3414 70.6019C45.4136 70.7609 45.4793 71.1007 45.499 71.3899C45.5187 71.7298 45.4924 72.0334 45.4202 72.3082C45.348 72.5974 45.256 72.7709 45.1378 72.8721C45.0393 72.9516 44.8621 73.0167 44.7439 73.0167C44.6257 73.0167 44.4549 72.9589 44.363 72.8866C44.2711 72.8215 44.1529 72.6407 44.1003 72.4889C44.0412 72.3298 44.0018 71.9684 44.0018 71.5707C44.0018 71.1947 44.0412 70.8188 44.0872 70.6814C44.1397 70.5585 44.2579 70.3777 44.363 70.2837ZM85.9287 69.2498C85.8236 69.2787 85.6463 69.3511 85.5347 69.4161C85.4296 69.474 85.2261 69.6692 85.0882 69.8427C84.9569 70.0162 84.7927 70.3199 84.7402 70.5223C84.6548 70.7971 84.6417 71.0935 84.6614 71.7514C84.6811 72.554 84.7008 72.648 84.8781 73.0023C84.9897 73.2192 85.1736 73.4722 85.2918 73.5662C85.41 73.6602 85.6266 73.7903 85.7842 73.8482C85.9353 73.9132 86.2767 73.9566 86.5394 73.9566C86.8086 73.9566 87.1763 73.8988 87.393 73.8265C87.5966 73.7542 87.8658 73.624 87.984 73.5373L88.1941 73.3782V71.3538H86.4212V72.2214H87.0778C87.0778 72.7998 87.0516 72.8866 86.9465 72.9444C86.8743 72.9806 86.6838 73.0167 86.5197 73.0167C86.2898 73.0167 86.1848 72.9733 86.0403 72.8143C85.9353 72.7058 85.8171 72.4889 85.7777 72.3298C85.7317 72.1708 85.6989 71.8454 85.6989 71.6068C85.6989 71.3683 85.7448 70.9995 85.7974 70.7898C85.8762 70.5006 85.9484 70.3777 86.1126 70.2693C86.2308 70.1897 86.3884 70.1247 86.4737 70.1247C86.5525 70.1247 86.7101 70.1753 86.8152 70.2331C86.9465 70.3054 87.034 70.4259 87.0778 70.5946L87.1435 70.8477H88.1941C88.135 70.5368 88.0759 70.3199 88.03 70.1608C87.9774 70.0018 87.8527 69.7849 87.7542 69.6764C87.6557 69.568 87.4521 69.4306 87.3076 69.3583C87.1632 69.2932 86.8414 69.2281 86.5853 69.2137C86.3358 69.1992 86.0403 69.2137 85.9287 69.2498ZM0.137896 73.9566L3.05997 73.9205L3.0928 73.0167H1.18853V72.0045H2.76448V71.0646H1.18853V70.197H3.0928V69.2571H0.137896V73.9566ZM3.68378 73.9566H4.80008L4.83291 71.3176L6.17904 73.9566H7.22967V69.2571H6.17247L6.14621 71.925L4.76725 69.2571H3.68378V73.9566ZM12.4828 73.9566H13.5335V69.2571H12.4828V73.9566ZM14.4593 71.6068L14.4528 73.9566H15.5034V71.173L16.9218 73.9205L17.9987 73.9566V69.2571H16.9415L16.9152 71.9611L15.5362 69.2932L14.4593 69.2498V71.6068ZM18.8589 73.9639H21.8138V73.0239H19.9095V72.0117H21.4855V71.0718H19.9095V70.2042H21.8138V69.2643H18.8589V73.9639ZM22.4048 73.9639H25.3597V73.0239H23.5211V72.0117H25.097V71.0718H23.5211V70.2042H25.3597V69.2643H22.4048V73.9639ZM26.0163 73.9639H27.0669V72.3009C27.52 72.3009 27.5266 72.3082 27.9009 73.1324L28.2817 73.9639C29.1945 73.9639 29.4309 73.9277 29.4309 73.8915C29.4309 73.8482 29.2339 73.4144 29.0041 72.93L28.5772 72.0479C28.9318 71.737 29.0829 71.5418 29.142 71.4116C29.2142 71.267 29.2536 70.9995 29.2601 70.7031C29.2601 70.3054 29.2339 70.1753 29.096 69.9439C28.9909 69.7632 28.8071 69.5896 28.6035 69.4812C28.3014 69.3077 28.1964 69.2932 27.1523 69.2715L26.0294 69.2498L26.0163 73.9639ZM27.0669 70.2042L27.4412 70.197C27.7236 70.197 27.8681 70.2331 27.9994 70.3416C28.1438 70.4573 28.1832 70.5512 28.1832 70.7826C28.1832 70.9754 28.1395 71.12 28.0519 71.2164C27.9469 71.3249 27.8287 71.361 27.0669 71.361V70.2042ZM30.0875 73.9639H33.0424V73.0239H31.2038V72.0117H32.7798V71.0718H31.2038V70.2042H33.0424V69.2643H30.0875V73.9639ZM33.6991 74C35.1503 73.9205 35.6165 73.8554 35.8003 73.7831C35.9579 73.7253 36.2009 73.5734 36.3388 73.4577C36.4832 73.3276 36.6737 73.0456 36.7853 72.7853C36.9626 72.3877 36.9889 72.2576 36.9954 71.6864C37.002 71.2598 36.9626 70.9055 36.8904 70.6742C36.8313 70.4717 36.6737 70.1681 36.5358 69.9945C36.4045 69.8138 36.1418 69.5896 35.9645 69.4884C35.6624 69.3221 35.5443 69.3004 34.6709 69.2715L33.7122 69.2426L33.6991 74ZM34.7694 70.1825L35.1043 70.2259C35.3735 70.2548 35.472 70.3054 35.6165 70.4862C35.715 70.6091 35.8332 70.8477 35.8726 71.014C35.912 71.1875 35.9317 71.5345 35.912 71.7948C35.8923 72.0551 35.8332 72.3732 35.7741 72.4961C35.715 72.6263 35.6033 72.7853 35.518 72.8432C35.4392 72.901 35.2291 72.9733 34.7431 73.0601L34.7694 70.1825ZM39.5432 73.9639H40.5939V72.084H42.1698V71.1441H40.5939V70.2042H42.3668V69.2643H39.5432V73.9639ZM47.3573 73.9639H48.4079V72.3009C48.8676 72.3009 48.8742 72.3082 49.2485 73.1324L49.6227 73.9639C50.5355 73.9639 50.7719 73.9349 50.7719 73.8915C50.7719 73.8482 50.5814 73.4216 50.3516 72.93L49.9314 72.0479C50.4173 71.5852 50.4961 71.4478 50.5683 71.1369C50.6143 70.92 50.6405 70.6163 50.6208 70.4573C50.5946 70.2982 50.5092 70.0524 50.4304 69.915C50.3451 69.7776 50.1349 69.5824 49.9511 69.4812C49.649 69.3077 49.5571 69.3004 48.4999 69.2715L47.3704 69.2498L47.3573 73.9639ZM48.4079 70.2042L48.7888 70.197C49.0646 70.197 49.2091 70.2331 49.3469 70.3416C49.4914 70.4645 49.5242 70.5512 49.5242 70.7826C49.5242 70.9754 49.4805 71.12 49.3929 71.2164C49.2878 71.3321 49.1762 71.361 48.4079 71.361V70.2042ZM53.2015 74C54.8759 73.9205 55.1451 73.8771 55.4012 73.7542C55.5851 73.6674 55.8412 73.4794 55.9725 73.3276C56.1104 73.183 56.2877 72.8938 56.3665 72.6986C56.4978 72.3949 56.5175 72.2142 56.5175 71.5779C56.5175 70.9128 56.4978 70.7682 56.3534 70.4573C56.268 70.2548 56.0907 69.9801 55.9594 69.8427C55.8346 69.7053 55.5982 69.5318 55.4341 69.4523C55.1911 69.3294 54.9744 69.2932 54.1799 69.2715L53.2146 69.2498L53.2015 74ZM54.3178 70.197H54.5476C54.6723 70.197 54.8693 70.2476 54.9744 70.3054C55.0926 70.3705 55.2239 70.5368 55.3027 70.7248C55.3947 70.9489 55.4341 71.1875 55.4341 71.6068C55.4341 72.019 55.4012 72.2576 55.3224 72.4383C55.2568 72.5684 55.132 72.742 55.0401 72.8215C54.9481 72.8938 54.7511 72.9733 54.3178 73.0529V70.197ZM57.2727 73.9566H60.2276V73.0167H58.389V72.0045H59.9649V71.0646H58.389V70.197H60.2276V69.2571H57.2727V73.9566ZM60.8842 73.9566L63.675 73.9205L63.7078 73.0167H61.9348V69.2571H60.8842V73.9566ZM64.3776 71.5852L64.3973 73.9205L65.4807 73.9566V69.2571H64.3644L64.3776 71.5852ZM66.0652 69.3077C66.0652 69.3366 66.3803 70.3922 66.7546 71.6575L67.4441 73.9494H68.6261C69.6964 70.3922 70.005 69.3366 70.005 69.3077C70.005 69.2787 69.7424 69.2498 69.414 69.2498C68.9084 69.2498 68.8231 69.2715 68.7968 69.38C68.7771 69.445 68.6129 70.1102 68.4356 70.8405C68.2518 71.5779 68.0811 72.2286 68.0614 72.2865C68.0417 72.3515 67.8709 71.7804 67.6805 71.0212C67.4901 70.2693 67.3194 69.5607 67.2931 69.4523C67.2471 69.2498 67.2471 69.2498 66.6561 69.2498C66.3344 69.2498 66.0652 69.2787 66.0652 69.3077ZM70.5303 73.9494H73.4853V73.0095H71.6466V71.9973H73.2226V71.0574H71.6466V70.1897H73.4853V69.2498H70.5303V73.9494ZM74.1419 73.9494H75.1925V72.2865C75.6522 72.2865 75.6588 72.2937 76.033 73.1179L76.4073 73.9494C77.3004 73.9494 77.5565 73.9277 77.5565 73.8988C77.5565 73.8699 77.366 73.4361 77.1362 72.9372L76.7094 72.0334C77.064 71.7298 77.215 71.5345 77.2675 71.4044C77.3332 71.267 77.3792 70.9851 77.3792 70.732C77.3792 70.4573 77.3332 70.197 77.2544 70.0162C77.1887 69.8572 77.0311 69.6619 76.8998 69.568C76.775 69.4812 76.5387 69.3727 76.3745 69.3294C76.2169 69.286 75.6456 69.2571 75.1137 69.2571L74.1419 69.2498V73.9494ZM75.1925 70.1897H75.5865C75.9214 70.1897 76.0068 70.2187 76.1447 70.3705C76.2629 70.4934 76.3088 70.6308 76.3088 70.8043C76.3088 70.9634 76.2629 71.1152 76.1775 71.202C76.0724 71.3176 75.9608 71.3466 75.1925 71.3466V70.1897ZM78.2788 73.9494H79.3951V69.2498H78.2788V73.9494ZM80.3144 73.9494H81.365L81.3978 71.2598L82.7768 73.9494H83.8603V69.2498H82.7374L82.7111 71.8671L81.365 69.2498H80.3144V73.9494Z" fill="white"/>
</svg>
