<svg width="15" height="16" viewBox="0 0 15 16" fill="none" xmlns="http://www.w3.org/2000/svg">
<path fill-rule="evenodd" clip-rule="evenodd" d="M0 8.00002C0 3.94993 3.28325 0.666687 7.33333 0.666687C11.3834 0.666687 14.6667 3.94993 14.6667 8.00002C14.6667 12.0501 11.3834 15.3334 7.33333 15.3334C3.28325 15.3334 0 12.0501 0 8.00002Z" fill="#08AD36"/>
<path fill-rule="evenodd" clip-rule="evenodd" d="M10.8738 5.36198C11.1341 5.62232 11.1341 6.04444 10.8738 6.30478L6.7357 10.6381C6.47535 10.8985 6.05324 10.8985 5.79289 10.6381L3.79289 8.63812C3.53254 8.37777 3.53254 7.95566 3.79289 7.69531C4.05324 7.43496 4.47535 7.43496 4.7357 7.69531L6.2643 9.22391L9.93096 5.36198C10.1913 5.10163 10.6134 5.10163 10.8738 5.36198Z" fill="white"/>
</svg>
