<svg width="52" height="53" viewBox="0 0 52 53" fill="none" xmlns="http://www.w3.org/2000/svg">
<path d="M26 0.5L50.7275 18.4656L41.2824 47.5344H10.7176L1.27253 18.4656L26 0.5Z" fill="#1565D8"/>
<path fill-rule="evenodd" clip-rule="evenodd" d="M19.7204 29.3871C20.5018 28.6057 21.5616 28.1667 22.6667 28.1667H29.3333C30.4384 28.1667 31.4982 28.6057 32.2796 29.3871C33.061 30.1685 33.5 31.2283 33.5 32.3334V34C33.5 34.4603 33.1269 34.8334 32.6667 34.8334C32.2064 34.8334 31.8333 34.4603 31.8333 34V32.3334C31.8333 31.6703 31.5699 31.0344 31.1011 30.5656C30.6323 30.0967 29.9964 29.8334 29.3333 29.8334H22.6667C22.0036 29.8334 21.3677 30.0967 20.8989 30.5656C20.4301 31.0344 20.1667 31.6703 20.1667 32.3334V34C20.1667 34.4603 19.7936 34.8334 19.3333 34.8334C18.8731 34.8334 18.5 34.4603 18.5 34V32.3334C18.5 31.2283 18.939 30.1685 19.7204 29.3871Z" fill="white"/>
<path fill-rule="evenodd" clip-rule="evenodd" d="M26.0007 19.8334C24.6199 19.8334 23.5007 20.9526 23.5007 22.3334C23.5007 23.7141 24.6199 24.8334 26.0007 24.8334C27.3814 24.8334 28.5007 23.7141 28.5007 22.3334C28.5007 20.9526 27.3814 19.8334 26.0007 19.8334ZM21.834 22.3334C21.834 20.0322 23.6995 18.1667 26.0007 18.1667C28.3018 18.1667 30.1673 20.0322 30.1673 22.3334C30.1673 24.6345 28.3018 26.5 26.0007 26.5C23.6995 26.5 21.834 24.6345 21.834 22.3334Z" fill="white"/>
</svg>
